<?xml version="1.0" standalone="no"?>
<!DOCTYPE svg PUBLIC "-//W3C//DTD SVG 20010904//EN"
 "http://www.w3.org/TR/2001/REC-SVG-20010904/DTD/svg10.dtd">
<svg version="1.0" xmlns="http://www.w3.org/2000/svg"
 width="260.000000pt" height="260.000000pt" viewBox="0 0 260.000000 260.000000"
 preserveAspectRatio="xMidYMid meet">
<metadata>
Created by potrace 1.11, written by Peter Selinger 2001-2013
</metadata>
<g transform="translate(0.000000,260.000000) scale(0.100000,-0.100000)"
fill="#000000" stroke="none">
<path d="M595 1993 c-82 -140 -198 -337 -257 -436 -60 -100 -108 -183 -108
-185 0 -2 -9 -17 -21 -33 l-21 -30 48 -83 c27 -46 153 -259 279 -474 l230
-391 560 0 560 -1 95 163 c52 89 177 301 277 471 l183 309 -103 176 c-56 97
-181 310 -277 473 l-175 297 -560 0 -560 0 -150 -256z m525 131 c0 -4 -24 -47
-52 -96 -29 -49 -61 -104 -72 -121 -10 -18 -93 -158 -184 -312 -91 -154 -165
-285 -165 -291 0 -6 23 -49 50 -95 l51 -84 366 0 367 0 60 -103 c58 -100 60
-104 44 -128 -8 -13 -21 -25 -28 -25 -6 -1 -226 -2 -489 -3 l-476 -1 -33 55
c-17 30 -74 126 -126 212 -51 87 -93 164 -93 172 0 8 34 72 76 142 42 71 86
147 99 169 30 53 273 464 291 493 14 21 20 22 164 22 83 0 150 -3 150 -6z
m798 -211 c72 -120 139 -234 149 -253 46 -81 156 -267 174 -291 37 -54 35 -67
-42 -197 -57 -97 -75 -120 -85 -110 -10 11 -134 219 -201 338 -52 92 -262 442
-273 454 -8 10 -38 14 -110 14 -97 1 -100 0 -118 -26 -10 -15 -90 -148 -177
-297 -87 -148 -163 -276 -170 -284 -9 -9 -41 -13 -111 -13 -146 0 -140 -1
-154 31 -14 35 -33 -3 185 366 94 160 197 334 229 388 l57 97 259 0 259 0 129
-217z m-351 -176 c6 -4 18 -20 25 -35 8 -15 113 -193 233 -397 120 -203 218
-377 218 -385 -1 -8 -58 -111 -128 -228 l-126 -212 -486 2 -485 3 -75 124
c-40 68 -71 126 -68 129 3 3 221 5 484 5 l480 0 31 56 c17 31 41 71 52 90 17
27 19 37 9 52 -52 85 -261 443 -261 450 0 4 -3 9 -7 11 -8 3 -41 57 -69 114
-17 32 -15 36 92 211 13 21 54 27 81 10z m-213 -400 c26 -44 45 -81 42 -84 -7
-8 -186 -9 -186 -2 0 9 92 170 95 167 1 -2 23 -38 49 -81z"/>
</g>
</svg>
