<?xml version="1.0" standalone="no"?>
<!DOCTYPE svg PUBLIC "-//W3C//DTD SVG 20010904//EN"
 "http://www.w3.org/TR/2001/REC-SVG-20010904/DTD/svg10.dtd">
<svg version="1.0" xmlns="http://www.w3.org/2000/svg"
 width="700.000000pt" height="700.000000pt" viewBox="0 0 700.000000 700.000000"
 preserveAspectRatio="xMidYMid meet">
<metadata>
Created by potrace 1.11, written by Peter Selinger 2001-2013
</metadata>
<g transform="translate(0.000000,700.000000) scale(0.100000,-0.100000)"
fill="#000000" stroke="none">
<path d="M2277 6044 c-1 -1 -92 -4 -202 -8 -110 -3 -209 -7 -220 -10 -11 -2
-28 -5 -37 -5 -25 -1 -22 -28 4 -42 13 -7 86 -13 182 -15 283 -7 348 -11 356
-24 4 -7 3 -31 -2 -54 -5 -22 -12 -52 -14 -66 -3 -14 -7 -32 -9 -40 -2 -8 -7
-31 -10 -50 -3 -19 -10 -48 -14 -65 -5 -16 -13 -48 -17 -70 -8 -46 -6 -37 -28
-135 -9 -41 -18 -84 -20 -95 -4 -21 -20 -90 -66 -300 -16 -71 -31 -141 -34
-155 -3 -14 -19 -90 -36 -170 -17 -80 -33 -152 -35 -160 -47 -222 -108 -503
-115 -530 -5 -19 -11 -48 -13 -65 -3 -16 -9 -48 -15 -70 -6 -22 -14 -56 -17
-75 -3 -19 -8 -43 -11 -52 -3 -9 -7 -27 -9 -40 -3 -13 -7 -34 -10 -48 -3 -14
-7 -34 -9 -45 -8 -37 -106 -489 -121 -555 -12 -54 -49 -224 -69 -322 -3 -13
-7 -32 -9 -43 -56 -247 -107 -476 -110 -495 -29 -155 -101 -390 -147 -481
-112 -219 -318 -375 -535 -405 -16 -3 -40 -7 -53 -9 -12 -3 -44 -8 -70 -11
-111 -12 -157 -37 -126 -68 13 -13 30 -15 92 -10 42 3 79 7 82 9 3 2 30 6 60
10 164 21 359 93 495 185 86 57 236 204 298 291 69 96 164 315 182 419 6 35
25 118 51 225 14 60 34 148 38 166 2 13 16 71 29 129 14 58 35 152 47 210 12
58 24 112 25 120 56 254 87 400 91 420 3 14 19 86 35 160 16 74 31 144 33 155
2 11 45 211 96 445 102 474 159 742 166 780 3 14 10 45 15 70 6 25 13 54 15
65 2 11 6 29 8 40 3 11 21 94 40 185 88 415 127 585 135 593 17 17 86 25 238
27 270 2 347 10 357 35 5 13 -11 22 -54 32 -32 7 -926 23 -933 17z"/>
<path d="M4850 6010 c-111 -15 -147 -22 -243 -46 -153 -39 -306 -104 -426
-182 -273 -179 -460 -473 -506 -795 -3 -20 -7 -54 -10 -74 -7 -45 -7 -245 -1
-288 35 -238 166 -439 411 -630 178 -139 364 -250 790 -470 551 -285 761 -443
883 -665 52 -96 65 -158 65 -325 0 -82 -3 -179 -7 -215 -49 -442 -278 -773
-646 -931 -363 -156 -908 -190 -1262 -79 -187 59 -383 176 -515 309 -251 250
-365 574 -328 926 8 75 9 106 6 148 -2 25 -38 21 -55 -5 -12 -19 -81 -304
-100 -413 -3 -16 -13 -61 -21 -100 -9 -38 -20 -92 -25 -120 -6 -27 -12 -59
-14 -70 -7 -29 -76 -366 -80 -390 -2 -11 -16 -80 -30 -153 -33 -170 -34 -192
-2 -192 20 0 27 9 41 48 95 264 157 363 241 378 34 6 108 -34 269 -146 270
-188 397 -252 615 -311 142 -39 233 -47 465 -44 121 2 231 5 245 8 14 3 43 8
65 12 86 12 113 17 199 36 455 102 780 341 961 704 52 105 116 281 129 355 26
144 34 250 30 395 -4 183 -7 208 -29 296 -72 277 -255 465 -705 726 -164 95
-217 124 -455 248 -604 315 -848 517 -922 758 -21 68 -23 441 -4 532 24 111
128 291 218 379 67 64 156 130 234 170 61 33 211 88 269 100 14 3 36 8 50 11
154 35 451 49 605 29 292 -40 444 -108 615 -276 169 -167 236 -316 255 -569 9
-123 17 -214 22 -234 2 -11 6 -27 8 -35 2 -8 4 -18 4 -22 1 -5 5 -8 11 -8 5 0
20 37 34 83 22 75 119 468 130 527 2 14 16 79 31 145 63 287 78 405 52 405
-21 0 -40 -27 -83 -115 -45 -92 -121 -175 -160 -175 -29 0 -80 25 -264 130
-189 107 -328 171 -403 184 -15 3 -53 10 -85 15 -31 6 -73 13 -92 16 -57 9
-420 13 -480 5z"/>
</g>
</svg>
