<svg xmlns="http://www.w3.org/2000/svg" width="260" height="260" viewBox="0 0 260 260"><title>justin-slack.logo</title><g id="b7a00deb-02ff-496d-bf93-50eda8437f16" data-name="Layer 2"><g id="b39ff7f9-fa2f-471d-ab31-0ccbbd2353ad" data-name="Layer 1"><path d="M256,4V256H4V4H256m4-4H0V260H260V0Z" fill="#9d005a"/><path d="M108.21,73V155.9c-.06,22.68-12.9,32.52-29.18,32.52-16.68,0-29.18-10.12-29.13-24.68h6.89C56.74,174.36,66.35,182,79,182c12.28,0,22.17-7.28,22.23-26.07V73Z" fill="#9d005a"/><path d="M173,77.75c-16.61,0-28.51,9.89-28.51,23.51,0,11.79,9.62,18.51,23.35,22.63l12.45,3.66c17,5.12,29.79,13.29,29.79,29.74,0,18.07-14.79,31.41-37.91,31.41-22,0-36.13-12-37.35-29.41H142c1.12,14.12,13.23,22.9,30.24,22.9,18.34,0,31.07-10.06,31.07-24.95,0-12-8.61-18.29-24.9-23.24l-13.28-4c-17.85-5.45-27.41-14.62-27.41-28.51,0-17.57,15.29-30.19,35.52-30.19S207.6,84,208.54,101.49h-6.83C200.54,87.37,189.37,77.75,173,77.75Z" fill="#9d005a"/></g></g></svg>