<svg xmlns="http://www.w3.org/2000/svg" width="191" height="191" viewBox="0 0 191 191"><title>justin-slack.logo</title><g id="a8fa585a-ce07-43a7-9df7-7e1c3b0d8068" data-name="Layer 2"><g id="f1884900-f170-40be-befe-db1821204aa7" data-name="Layer 1"><path d="M187,4V187H4V4H187m4-4H0V191H191V0Z" fill="#9d005a"/><path d="M79.49,53.65v60.88c0,16.66-9.47,23.89-21.44,23.89-12.25,0-21.43-7.44-21.39-18.13h5.06c0,7.79,7,13.39,16.33,13.39,9,0,16.3-5.35,16.34-19.15V53.65Z" fill="#9d005a"/><path d="M127.11,57.12c-12.21,0-21,7.27-21,17.27,0,8.66,7.06,13.6,17.15,16.62l9.15,2.69c12.49,3.76,21.88,9.76,21.88,21.85,0,13.27-10.86,23.07-27.85,23.07-16.17,0-26.54-8.82-27.44-21.6h5.23c.82,10.37,9.72,16.82,22.21,16.82,13.48,0,22.83-7.39,22.83-18.33,0-8.78-6.33-13.44-18.29-17.07l-9.76-2.94c-13.11-4-20.13-10.74-20.13-21,0-12.9,11.23-22.17,26.09-22.17s25.27,9.35,26,22.17h-5C147.32,64.18,139.11,57.12,127.11,57.12Z" fill="#9d005a"/></g></g></svg>