<svg xmlns="http://www.w3.org/2000/svg" viewBox="0 0 87.9 97.49"><title>logo</title><path d="M44,0.24c0-3,44.6,22.75,42,24.25,2.6-1.5,2.6,50,0,48.5,2.6,1.5-42,27.25-42,24.25,0,3-44.6-22.75-42-24.25-2.6,1.5-2.6-50,0-48.5C-0.65,23,44-2.76,44,.24Z" style="fill:#00aeef"/><path d="M44,0.24c0-3,44.6,22.75,42,24.25,2.6-1.5,2.6,50,0,48.5,2.6,1.5-42,27.25-42,24.25,0,3-44.6-22.75-42-24.25-2.6,1.5-2.6-50,0-48.5C-0.65,23,44-2.76,44,.24Z" style="fill:#00aeef"/><text transform="translate(12.73 65.34)" style="font-size:54.040000915527344px;fill:#fff;font-family:Source Sans Pro;font-weight:700">JS</text></svg>