<svg xmlns="http://www.w3.org/2000/svg" width="1184" height="527" viewBox="0 0 1184 527"><g id="ee686854-2ee2-4acc-9354-216943ec7d52" data-name="Layer 2"><g id="e0bef388-132d-4407-9d2e-3938a55904a9" data-name="Layer 1"><rect width="1184" height="527" fill="#fff"/><path d="M1101.65,340.5H951.85a19.36,19.36,0,0,1-19.36-19.36V156a19.36,19.36,0,0,1,19.36-19.36h149.8A19.36,19.36,0,0,1,1121,156V321.14A19.36,19.36,0,0,1,1101.65,340.5ZM156.86,195a43.55,43.55,0,1,1-43.54,43.54A43.6,43.6,0,0,1,156.86,195Zm0-20.94a64.49,64.49,0,1,0,64.49,64.48A64.48,64.48,0,0,0,156.86,174.06ZM930.62,354.31h192.27v14.14H930.62Z" fill="#fbd528" stroke="#221b38" stroke-miterlimit="1" stroke-width="0.25" fill-rule="evenodd"/><path d="M452.61,340.49H302.81a19.35,19.35,0,0,1-19.36-19.35V156a19.36,19.36,0,0,1,19.36-19.36h149.8A19.36,19.36,0,0,1,472,156V321.14A19.35,19.35,0,0,1,452.61,340.49Z" fill="none" stroke="#221b38" stroke-miterlimit="1" stroke-width="0.25" opacity="0.1" style="isolation:isolate"/><path d="M82,137.54A18.41,18.41,0,0,0,63.55,156V321.14A18.41,18.41,0,0,0,82,339.54h149.8a18.4,18.4,0,0,0,18.41-18.4V156a18.41,18.41,0,0,0-18.41-18.41ZM61.65,156A20.31,20.31,0,0,1,82,135.64h149.8A20.31,20.31,0,0,1,252.07,156V321.14a20.31,20.31,0,0,1-20.31,20.31H82a20.31,20.31,0,0,1-20.31-20.31Z" fill="#558dca" stroke="#221b38" stroke-miterlimit="1" stroke-width="0.25" fill-rule="evenodd"/><path d="M253,358.05H60.73v14.14H253Z" fill="#558dca" stroke="#221b38" stroke-miterlimit="1" stroke-width="0.25"/><path d="M80.41,389.75a.88.88,0,0,1,.88-.88H226.92a.88.88,0,1,1,0,1.76H81.29A.89.89,0,0,1,80.41,389.75Z" fill="#558dca" stroke="#221b38" stroke-miterlimit="1" stroke-width="0.25" fill-rule="evenodd"/><path d="M530.55,136.59H872a28.12,28.12,0,0,1,28.12,28.12V312.38A28.12,28.12,0,0,1,872,340.5H530.55a28.12,28.12,0,0,1-28.12-28.12V164.71A28.12,28.12,0,0,1,530.55,136.59ZM515.89,360.66h38.57a6.81,6.81,0,0,1,0,13.62H515.89a6.81,6.81,0,0,1,0-13.62Zm373.68,3.12H577a3.94,3.94,0,0,0,0,7.88H889.57a3.94,3.94,0,0,0,0-7.88Zm64.37-204.71h145.62a1.91,1.91,0,1,1,0,3.81H953.94a1.91,1.91,0,1,1,0-3.81Z" fill="#558dca" stroke="#221b38" stroke-miterlimit="1" stroke-width="0.25" fill-rule="evenodd"/><path d="M156.15,245.36a5.39,5.39,0,1,0-5.39-5.39A5.39,5.39,0,0,0,156.15,245.36Z" fill="#558dca" stroke="#221b38" stroke-miterlimit="1" stroke-width="0.25"/><path d="M473.84,354.3H281.58v14.14H473.84Z" fill="none" stroke="#221b38" stroke-miterlimit="1" stroke-width="0.25" opacity="0.1" style="isolation:isolate"/><path d="M342,232.79H303.66a2.23,2.23,0,0,1-2.23-2.22v-36.5a2.23,2.23,0,0,1,2.23-2.22H342a2.23,2.23,0,0,1,2.22,2.22v36.5A2.23,2.23,0,0,1,342,232.79Z" fill="#558dca" stroke="#221b38" stroke-miterlimit="1" stroke-width="0.25" opacity="0.21" style="isolation:isolate"/><path d="M340.42,238.9h-35.2a.88.88,0,0,1-.89-.88v-.91a.89.89,0,0,1,.89-.89h35.2a.88.88,0,0,1,.88.89V238A.87.87,0,0,1,340.42,238.9Z" fill="#558dca" stroke="#221b38" stroke-miterlimit="1" stroke-width="0.25" opacity="0.21" style="isolation:isolate"/><path d="M396.87,232.79H358.55a2.22,2.22,0,0,1-2.22-2.22v-36.5a2.22,2.22,0,0,1,2.22-2.22h38.32a2.22,2.22,0,0,1,2.22,2.22v36.5A2.22,2.22,0,0,1,396.87,232.79Z" fill="#558dca" stroke="#221b38" stroke-miterlimit="1" stroke-width="0.25" opacity="0.21" style="isolation:isolate"/><path d="M395.31,238.9h-35.2a.88.88,0,0,1-.88-.88v-.91a.89.89,0,0,1,.88-.89h35.2a.89.89,0,0,1,.89.89V238A.88.88,0,0,1,395.31,238.9Z" fill="#558dca" stroke="#221b38" stroke-miterlimit="1" stroke-width="0.25" opacity="0.21" style="isolation:isolate"/><path d="M451.77,232.79H413.44a2.23,2.23,0,0,1-2.22-2.22v-36.5a2.23,2.23,0,0,1,2.22-2.22h38.33a2.23,2.23,0,0,1,2.22,2.22v36.5A2.23,2.23,0,0,1,451.77,232.79Z" fill="#558dca" stroke="#221b38" stroke-miterlimit="1" stroke-width="0.25" opacity="0.21" style="isolation:isolate"/><path d="M450.2,238.9H415a.88.88,0,0,1-.89-.88v-.91a.89.89,0,0,1,.89-.89H450.2a.89.89,0,0,1,.89.89V238A.88.88,0,0,1,450.2,238.9Z" fill="#558dca" stroke="#221b38" stroke-miterlimit="1" stroke-width="0.25" opacity="0.21" style="isolation:isolate"/><path d="M342,292.75H303.66a2.23,2.23,0,0,1-2.23-2.22V254a2.23,2.23,0,0,1,2.23-2.23H342A2.23,2.23,0,0,1,344.2,254v36.49A2.23,2.23,0,0,1,342,292.75Z" fill="#558dca" stroke="#221b38" stroke-miterlimit="1" stroke-width="0.25" opacity="0.21" style="isolation:isolate"/><path d="M340.42,298.86h-35.2a.88.88,0,0,1-.89-.88v-.91a.89.89,0,0,1,.89-.89h35.2a.88.88,0,0,1,.88.89V298A.87.87,0,0,1,340.42,298.86Z" fill="#558dca" stroke="#221b38" stroke-miterlimit="1" stroke-width="0.25" opacity="0.21" style="isolation:isolate"/><path d="M396.87,292.75H358.55a2.22,2.22,0,0,1-2.22-2.22V254a2.22,2.22,0,0,1,2.22-2.23h38.32a2.22,2.22,0,0,1,2.22,2.23v36.49A2.22,2.22,0,0,1,396.87,292.75Z" fill="#558dca" stroke="#221b38" stroke-miterlimit="1" stroke-width="0.25" opacity="0.21" style="isolation:isolate"/><path d="M395.31,298.86h-35.2a.88.88,0,0,1-.88-.88v-.91a.89.89,0,0,1,.88-.89h35.2a.89.89,0,0,1,.89.89V298A.88.88,0,0,1,395.31,298.86Z" fill="#558dca" stroke="#221b38" stroke-miterlimit="1" stroke-width="0.25" opacity="0.21" style="isolation:isolate"/><path d="M451.77,292.75H413.44a2.23,2.23,0,0,1-2.22-2.22V254a2.23,2.23,0,0,1,2.22-2.23h38.33A2.23,2.23,0,0,1,454,254v36.49A2.23,2.23,0,0,1,451.77,292.75Z" fill="#558dca" stroke="#221b38" stroke-miterlimit="1" stroke-width="0.25" opacity="0.21" style="isolation:isolate"/><path d="M450.2,298.86H415a.88.88,0,0,1-.89-.88v-.91a.89.89,0,0,1,.89-.89H450.2a.89.89,0,0,1,.89.89V298A.88.88,0,0,1,450.2,298.86Z" fill="#558dca" stroke="#221b38" stroke-miterlimit="1" stroke-width="0.25" opacity="0.21" style="isolation:isolate"/></g></g></svg>