<svg xmlns="http://www.w3.org/2000/svg" width="96.16" height="96.16" viewBox="0 0 96.16 96.16"><title>Asset 9</title><circle cx="48.08" cy="48.08" r="47.58" fill="none" stroke="#00b087" stroke-miterlimit="10"/><rect x="41.77" y="59.81" width="2.31" height="2.63" fill="#00b087"/><rect x="46.77" y="59.81" width="2.31" height="2.63" fill="#00b087"/><rect x="51.82" y="59.81" width="2.31" height="2.63" fill="#00b087"/><rect x="41.77" y="55.3" width="2.31" height="2.63" fill="#00b087"/><rect x="46.77" y="55.3" width="2.31" height="2.63" fill="#00b087"/><rect x="51.82" y="55.3" width="2.31" height="2.63" fill="#00b087"/><rect x="41.77" y="50.84" width="2.31" height="2.63" fill="#00b087"/><rect x="46.77" y="50.84" width="2.31" height="2.63" fill="#00b087"/><rect x="51.82" y="50.84" width="2.31" height="2.63" fill="#00b087"/><rect x="41.77" y="46.33" width="2.31" height="2.63" fill="#00b087"/><rect x="46.77" y="46.33" width="2.31" height="2.63" fill="#00b087"/><rect x="51.82" y="46.33" width="2.31" height="2.63" fill="#00b087"/><rect x="41.77" y="41.87" width="2.31" height="2.63" fill="#00b087"/><rect x="46.77" y="41.87" width="2.31" height="2.63" fill="#00b087"/><rect x="51.82" y="41.87" width="2.31" height="2.63" fill="#00b087"/><rect x="41.77" y="37.35" width="2.31" height="2.63" fill="#00b087"/><rect x="46.77" y="37.35" width="2.31" height="2.63" fill="#00b087"/><rect x="51.82" y="37.35" width="2.31" height="2.63" fill="#00b087"/><rect x="41.77" y="32.89" width="2.31" height="2.63" fill="#00b087"/><rect x="46.77" y="32.89" width="2.31" height="2.63" fill="#00b087"/><rect x="51.82" y="32.89" width="2.31" height="2.63" fill="#00b087"/><rect x="41.77" y="28.38" width="2.31" height="2.63" fill="#00b087"/><rect x="46.77" y="28.38" width="2.31" height="2.63" fill="#00b087"/><rect x="51.82" y="28.38" width="2.31" height="2.63" fill="#00b087"/><rect x="34.3" y="67.12" width="2.31" height="2.63" fill="#00b087"/><rect x="29.36" y="67.12" width="2.31" height="2.63" fill="#00b087"/><rect x="34.3" y="62.66" width="2.31" height="2.63" fill="#00b087"/><rect x="29.36" y="62.66" width="2.31" height="2.63" fill="#00b087"/><rect x="34.3" y="58.15" width="2.31" height="2.63" fill="#00b087"/><rect x="29.36" y="58.15" width="2.31" height="2.63" fill="#00b087"/><rect x="34.3" y="53.69" width="2.31" height="2.63" fill="#00b087"/><rect x="29.36" y="53.69" width="2.31" height="2.63" fill="#00b087"/><rect x="34.3" y="49.17" width="2.31" height="2.63" fill="#00b087"/><rect x="29.36" y="49.17" width="2.31" height="2.63" fill="#00b087"/><rect x="34.3" y="44.71" width="2.31" height="2.63" fill="#00b087"/><rect x="29.36" y="44.71" width="2.31" height="2.63" fill="#00b087"/><rect x="34.3" y="40.2" width="2.31" height="2.63" fill="#00b087"/><rect x="29.36" y="40.2" width="2.31" height="2.63" fill="#00b087"/><rect x="34.3" y="35.74" width="2.31" height="2.63" fill="#00b087"/><rect x="29.36" y="35.74" width="2.31" height="2.63" fill="#00b087"/><rect x="59.29" y="67.12" width="2.31" height="2.63" fill="#00b087"/><rect x="64.23" y="67.12" width="2.31" height="2.63" fill="#00b087"/><rect x="59.29" y="62.66" width="2.31" height="2.63" fill="#00b087"/><rect x="64.23" y="62.66" width="2.31" height="2.63" fill="#00b087"/><rect x="59.29" y="58.15" width="2.31" height="2.63" fill="#00b087"/><rect x="64.23" y="58.15" width="2.31" height="2.63" fill="#00b087"/><rect x="59.29" y="53.69" width="2.31" height="2.63" fill="#00b087"/><rect x="64.23" y="53.69" width="2.31" height="2.63" fill="#00b087"/><rect x="59.29" y="49.17" width="2.31" height="2.63" fill="#00b087"/><rect x="64.23" y="49.17" width="2.31" height="2.63" fill="#00b087"/><rect x="59.29" y="44.71" width="2.31" height="2.63" fill="#00b087"/><rect x="64.23" y="44.71" width="2.31" height="2.63" fill="#00b087"/><rect x="59.29" y="40.2" width="2.31" height="2.63" fill="#00b087"/><rect x="64.23" y="40.2" width="2.31" height="2.63" fill="#00b087"/><rect x="59.29" y="35.74" width="2.31" height="2.63" fill="#00b087"/><rect x="64.23" y="35.74" width="2.31" height="2.63" fill="#00b087"/><path d="M69.55,72V33.16L57.09,31.55v-5.8H52l-.43-.91a.83.83,0,0,0-.81-.54H48.33V20.7h-.81v3.55H44.94a.88.88,0,0,0-.81.54l-.43.91H38.66v5.8L26.19,33.11V72H24.58V73.3H71.11V72H69.55Zm-.81-38.15V72H57.09V32.36ZM39.62,26.55h4.78l.64-1.45v-.05h5.86l.64,1.5h4.78V72h-3.6V64.22H43.22V72h-3.6V26.55ZM51.87,72H48.38V65.08h3.49Zm-4.3,0H44.08V65.08h3.49ZM27.16,33.86l11.66-1.5V72H27.16Z" fill="#00b087"/></svg>