<svg xmlns="http://www.w3.org/2000/svg" xmlns:xlink="http://www.w3.org/1999/xlink" version="1.1" x="0px" y="0px" viewBox="0 0 100 125" enable-background="new 0 0 100 100" xml:space="preserve"><g><path fill="#ffffff" d="M59.182,46.055C65.179,42.726,69.375,36.332,69.375,29c0-10.752-8.686-19.5-19.438-19.5   S30.469,18.248,30.469,29c0,7.332,3.837,13.726,9.834,17.055C28.649,49.999,20,61.031,20,74v9.5c0,0.814,0.743,1.547,1.497,1.854   c0.518,0.21,12.977,5.146,28.378,5.146s27.548-4.937,28.065-5.146C78.694,85.047,79,84.314,79,83.5V74   C79,61.031,70.835,49.999,59.182,46.055z M34.5,29c0-8.547,6.953-15.5,15.5-15.5S65.5,20.453,65.5,29S58.547,44.5,50,44.5   S34.5,37.547,34.5,29z M75,82.108C72,83.321,61.398,86.5,49.5,86.5c-11.869,0-21.5-3.181-25.5-4.393V74   c0-14.061,11.439-25.5,25.5-25.5S75,59.939,75,74V82.108z"/></g></svg>