
        <svg 
          xmlns="http://www.w3.org/2000/svg" 
          class="artwork" 
          viewBox="0 0 700 437.5" 
          width="1400" 
          height="875">
          <rect 
            x="0" 
            y="0"
            width="700"
            height="437.5"
            fill="#ffffff"
          />
          <g
            transform="translate(105.00000000000003 65.625) scale(0.7)" 
            stroke-linecap="round" 
            stroke-linejoin="round"
            stroke-width="1"
            stroke="#555555">
            
            <polyline points="350,87.5 350,350"></polyline>
            <polyline points="595,87.5 350,87.5"></polyline>
            <polyline points="595,81.6725 595,93.3275"></polyline>
            <circle cx="350" cy="87.5" r="3.8850000000000002" fill="#555555"></circle>
            <circle cx="350" cy="350" r="3.8850000000000002" fill="#555555"></circle>
          
            <polyline points="175,306.25 175,350"></polyline>
            <polyline points="560,306.25 175,306.25"></polyline>
            <polyline points="560,300.4225 560,312.0775"></polyline>
            <circle cx="175" cy="306.25" r="4.662000000000001" fill="#555555"></circle>
            <circle cx="175" cy="350" r="3.8850000000000002" fill="#555555"></circle>
          
            <polyline points="245,393.75 245,21.875"></polyline>
            <polyline points="455,393.75 245,393.75"></polyline>
            <polyline points="455,387.9225 455,399.5775"></polyline>
            <circle cx="245" cy="393.75" r="5.827500000000001" fill="#555555"></circle>
            <circle cx="245" cy="21.875" r="3.8850000000000002" fill="#555555"></circle>
          
            <polyline points="315,328.125 315,284.375"></polyline>
            <polyline points="490,328.125 315,328.125"></polyline>
            <polyline points="490,322.2975 490,333.9525"></polyline>
            <circle cx="315" cy="328.125" r="3.8850000000000002" fill="#555555"></circle>
            <circle cx="315" cy="284.375" r="4.662000000000001" fill="#555555"></circle>
          
            <polyline points="70,131.25 70,21.875"></polyline>
            <polyline points="665,131.25 70,131.25"></polyline>
            <polyline points="665,125.4225 665,137.0775"></polyline>
            <circle cx="70" cy="131.25" r="3.8850000000000002" fill="#555555"></circle>
            <circle cx="70" cy="21.875" r="5.827500000000001" fill="#555555"></circle>
          
            <polyline points="665,153.125 665,415.625"></polyline>
            <polyline points="210,153.125 665,153.125"></polyline>
            <polyline points="210,147.2975 210,158.9525"></polyline>
            <circle cx="665" cy="153.125" r="4.662000000000001" fill="#555555"></circle>
            <circle cx="665" cy="415.625" r="4.662000000000001" fill="#555555"></circle>
          
            <polyline points="140,240.625 140,153.125"></polyline>
            <polyline points="105,240.625 140,240.625"></polyline>
            <polyline points="105,234.7975 105,246.4525"></polyline>
            <circle cx="140" cy="240.625" r="4.662000000000001" fill="#555555"></circle>
            <circle cx="140" cy="153.125" r="4.662000000000001" fill="#555555"></circle>
          
            <polyline points="350,284.375 350,371.875"></polyline>
            <polyline points="385,284.375 350,284.375"></polyline>
            <polyline points="385,278.5475 385,290.2025"></polyline>
            <circle cx="350" cy="284.375" r="4.662000000000001" fill="#555555"></circle>
            <circle cx="350" cy="371.875" r="4.662000000000001" fill="#555555"></circle>
          
            <polyline points="665,218.75 665,43.75"></polyline>
            <polyline points="35,218.75 665,218.75"></polyline>
            <polyline points="35,212.9225 35,224.5775"></polyline>
            <circle cx="665" cy="218.75" r="3.8850000000000002" fill="#555555"></circle>
            <circle cx="665" cy="43.75" r="5.827500000000001" fill="#555555"></circle>
          
            <polyline points="420,284.375 420,306.25"></polyline>
            <polyline points="525,284.375 420,284.375"></polyline>
            <polyline points="525,278.5475 525,290.2025"></polyline>
            <circle cx="420" cy="284.375" r="5.827500000000001" fill="#555555"></circle>
            <circle cx="420" cy="306.25" r="4.662000000000001" fill="#555555"></circle>
          
            <polyline points="490,240.625 490,371.875"></polyline>
            <polyline points="210,240.625 490,240.625"></polyline>
            <polyline points="210,234.7975 210,246.4525"></polyline>
            <circle cx="490" cy="240.625" r="4.662000000000001" fill="#555555"></circle>
            <circle cx="490" cy="371.875" r="5.827500000000001" fill="#555555"></circle>
          
            <polyline points="455,393.75 455,175"></polyline>
            <polyline points="70,393.75 455,393.75"></polyline>
            <polyline points="70,387.9225 70,399.5775"></polyline>
            <circle cx="455" cy="393.75" r="3.8850000000000002" fill="#555555"></circle>
            <circle cx="455" cy="175" r="4.662000000000001" fill="#555555"></circle>
          
            <polyline points="210,393.75 210,284.375"></polyline>
            <polyline points="350,393.75 210,393.75"></polyline>
            <polyline points="350,387.9225 350,399.5775"></polyline>
            <circle cx="210" cy="393.75" r="3.8850000000000002" fill="#555555"></circle>
            <circle cx="210" cy="284.375" r="3.8850000000000002" fill="#555555"></circle>
          
            <polyline points="490,393.75 490,328.125"></polyline>
            <polyline points="315,393.75 490,393.75"></polyline>
            <polyline points="315,387.9225 315,399.5775"></polyline>
            <circle cx="490" cy="393.75" r="4.662000000000001" fill="#555555"></circle>
            <circle cx="490" cy="328.125" r="4.662000000000001" fill="#555555"></circle>
          
            <polyline points="665,153.125 665,350"></polyline>
            <polyline points="385,153.125 665,153.125"></polyline>
            <polyline points="385,147.2975 385,158.9525"></polyline>
            <circle cx="665" cy="153.125" r="5.827500000000001" fill="#555555"></circle>
            <circle cx="665" cy="350" r="4.662000000000001" fill="#555555"></circle>
          
          </g>
        </svg>
      