<svg xmlns="http://www.w3.org/2000/svg" width="96.16" height="96.16" viewBox="0 0 96.16 96.16"><title>Asset 8</title><circle cx="48.08" cy="48.08" r="47.58" fill="none" stroke="#00b087" stroke-miterlimit="10"/><path d="M67.26,22.41a3.72,3.72,0,0,0-3.66,3.1H52.37a.71.71,0,0,0-.62.62s0,11.18,0,22.34H45.43a.62.62,0,0,0,.12,1.24h6.2V72.05a.65.65,0,0,0,.62.62H63.6a3.72,3.72,0,1,0,0-1.24H53c0-1.29,0-15.83,0-21.72H63.6a3.72,3.72,0,1,0,0-1.24H53c0-10.85,0-21.14,0-21.72H63.6a3.72,3.72,0,1,0,3.66-4.34Zm0,1.24a2.48,2.48,0,1,1-2.48,2.48A2.47,2.47,0,0,1,67.26,23.66ZM32.51,28a5,5,0,1,0,5,5A5,5,0,0,0,32.51,28Zm0,1.24A3.72,3.72,0,1,1,28.79,33,3.71,3.71,0,0,1,32.51,29.24ZM26.33,40.41a2.57,2.57,0,0,0-1.88.76,2.51,2.51,0,0,0-.62,1.73c0,.08,4.56,26.78,4.56,26.78a.64.64,0,0,0,.62.52h7a.64.64,0,0,0,.62-.52l4.52-26.6h0a2.25,2.25,0,0,0-.6-1.9,2.57,2.57,0,0,0-1.88-.76Zm0,1.24H38.7a1.32,1.32,0,0,1,1,.37,1,1,0,0,1,.25.83s0,0,0,0L35.5,69h-6L25.09,42.87v0a1,1,0,0,1,.25-.83,1.32,1.32,0,0,1,1-.37Zm40.93,5a2.48,2.48,0,1,1-2.48,2.48A2.47,2.47,0,0,1,67.26,46.61Zm0,23a2.48,2.48,0,1,1-2.48,2.48A2.47,2.47,0,0,1,67.26,69.57Z" fill="#00b087"/></svg>