<svg xmlns="http://www.w3.org/2000/svg" width="25.44" height="23.95" viewBox="0 0 25.44 23.95"><title>date</title><path d="M25.44,1.5H0V23.95H25.44ZM.75,23.2v-21H24.69v21Z" fill="#fff"/><path d="M16.09,4.86a.37.37,0,0,1-.75,0,.37.37,0,0,1,.75,0" fill="#fff"/><path d="M22.45,4.86a.37.37,0,0,1-.75,0,.37.37,0,0,1,.75,0" fill="#fff"/><path d="M10.1,4.86a.37.37,0,0,1-.75,0,.37.37,0,0,1,.75,0" fill="#fff"/><path d="M3.74,4.86a.37.37,0,0,1-.75,0,.37.37,0,0,1,.75,0" fill="#fff"/><path d="M21.7,0h.75V3H21.7Z" fill="#fff"/><path d="M15.34,0h.75V3h-.75Z" fill="#fff"/><path d="M9.35,0h.75V3H9.35Z" fill="#fff"/><path d="M3,0h.75V3H3Z" fill="#fff"/><path d="M.37,6.73H25.44v.75H.37Z" fill="#fff"/><path d="M12.72,7.11h.37V23.2h-.37Z" fill="#fff"/><path d="M.37,15H25.44v.37H.37Z" fill="#fff"/></svg>