<svg xmlns="http://www.w3.org/2000/svg" width="96.16" height="96.16" viewBox="0 0 96.16 96.16"><title>Asset 7</title><circle cx="48.08" cy="48.08" r="47.58" fill="none" stroke="#00b087" stroke-miterlimit="10"/><path d="M51.64,57.63c.1.1.2.1.4.1s.3,0,.4-.1l1.5-1.5,1.5,1.5c.1.1.2.1.4.1s.3,0,.4-.1a.48.48,0,0,0,0-.7l-1.5-1.5,1.5-1.5a.49.49,0,0,0-.7-.7L54,54.73l-1.5-1.5a.49.49,0,0,0-.7.7l1.5,1.5-1.7,1.5A.48.48,0,0,0,51.64,57.63Z" fill="#00b087"/><path d="M43.44,52.43a3,3,0,0,0-3,3,3,3,0,0,0,3,3,3,3,0,0,0,3-3A3,3,0,0,0,43.44,52.43Zm0,5a2,2,0,1,1,2-2A2,2,0,0,1,43.44,57.43Z" fill="#00b087"/><path d="M41.24,43.93a.48.48,0,0,0,0,.7l1.5,1.5-1.5,1.5a.48.48,0,0,0,0,.7c.1.1.2.1.4.1s.3,0,.4-.1l1.5-1.5,1.5,1.5c.1.1.2.1.4.1s.3,0,.4-.1a.48.48,0,0,0,0-.7l-1.5-1.5,1.5-1.5a.49.49,0,0,0-.7-.7l-1.7,1.5-1.5-1.5A.48.48,0,0,0,41.24,43.93Z" fill="#00b087"/><path d="M53.84,49.13a3,3,0,0,0,3-3,3,3,0,0,0-6,0A3,3,0,0,0,53.84,49.13Zm0-5a2,2,0,1,1-2,2A2,2,0,0,1,53.84,44.13Z" fill="#00b087"/><path d="M55.94,39.13l4.6-4.7v21.3a5.91,5.91,0,0,1-5.9,5.9H40a.37.37,0,0,0-.3.1,4.92,4.92,0,0,0-4.9-4.6,5,5,0,0,0-5,5,5,5,0,0,0,9.9.4.37.37,0,0,0,.3.1h14.7a6.91,6.91,0,0,0,6.9-6.9V34.53l4.6,4.6c.1.1.2.1.4.1s.3,0,.4-.1a.48.48,0,0,0,0-.7l-5.2-5.2c-.1-.1-.1-.1-.2-.1a.57.57,0,0,0-1,0,.35.35,0,0,0-.2.1l-5.2,5.2a.49.49,0,0,0,.7.7ZM34.74,66a4,4,0,1,1,4-4A4,4,0,0,1,34.74,66Z" fill="#00b087"/><path d="M25.56,33.8a16.84,16.84,0,0,0,5.9-.8,9.48,9.48,0,0,0,5.3-5.1c.9-2.1.8-4.5.7-6.9,0-.7-.1-1.3-.1-1.9a.47.47,0,0,0-.5-.5c-.3,0-.4.1-.4.4a14.08,14.08,0,0,0,.1,2c.1,2.3.2,4.6-.7,6.5a8.49,8.49,0,0,1-4.8,4.5,18,18,0,0,1-7,.7h-1.4a.5.5,0,1,0,0,1h1.4C24.56,33.7,25.06,33.8,25.56,33.8Z" fill="#00b087"/><path d="M65.39,81.19H31.64a12,12,0,0,1-12-12V27.66c2.75-3.16,5.75-5.66,12-12H65.39a12,12,0,0,1,12,12V69.19A12,12,0,0,1,65.39,81.19Z" fill="none" stroke="#00b087" stroke-miterlimit="10"/></svg>