<svg xmlns="http://www.w3.org/2000/svg" width="22" height="22" viewBox="0 0 22 22"><title>Asset 1</title><path d="M11,0A11,11,0,0,0,2.05,4.6H2A11,11,0,0,0,2,17.39h0a11,11,0,0,0,17.89,0h0A11,11,0,0,0,20,4.61h0A11,11,0,0,0,11,0Zm-.26.53V4.6h-4a11.38,11.38,0,0,1,.49-1.09C8.16,1.81,9.32.68,10.74.53Zm.51,0c1.36.12,2.59,1.21,3.52,3a11.38,11.38,0,0,1,.49,1.09h-4ZM8.84.74A7.12,7.12,0,0,0,6.77,3.28,12.16,12.16,0,0,0,6.19,4.6H2.69A10.47,10.47,0,0,1,8.84.74Zm4.32,0A10.47,10.47,0,0,1,19.31,4.6h-3.5a12.16,12.16,0,0,0-.58-1.33A7.12,7.12,0,0,0,13.16.74ZM2.31,5.12H6A17.55,17.55,0,0,0,5.24,8.7H.77A10.43,10.43,0,0,1,2.31,5.12Zm4.24,0h4.2V8.7h-5A16.85,16.85,0,0,1,6.55,5.12Zm4.71,0h4.2a16.85,16.85,0,0,1,.79,3.58h-5Zm4.74,0h3.69A10.43,10.43,0,0,1,21.23,8.7H16.76A17.55,17.55,0,0,0,16,5.12ZM.66,9.21H5.2c0,.58-.08,1.18-.08,1.79s0,1.21.08,1.79H.66a10.63,10.63,0,0,1,0-3.58Zm5,0h5v3.58h-5c-.05-.58-.08-1.18-.08-1.79S5.66,9.79,5.71,9.21Zm5.55,0h5c.05.58.08,1.18.08,1.79s0,1.21-.08,1.79h-5Zm5.55,0h4.53a10.63,10.63,0,0,1,0,3.58H16.8c0-.58.08-1.18.08-1.79S16.85,9.79,16.8,9.21ZM.77,13.3H5.24A17.44,17.44,0,0,0,6,16.88H2.31A10.43,10.43,0,0,1,.77,13.3Zm5,0h5v3.58H6.56A16.81,16.81,0,0,1,5.76,13.3Zm5.49,0h5a16.81,16.81,0,0,1-.79,3.58H11.26Zm5.5,0h4.48a10.43,10.43,0,0,1-1.54,3.58H16A17.44,17.44,0,0,0,16.76,13.3ZM2.69,17.4h3.5a12.1,12.1,0,0,0,.58,1.32,7.12,7.12,0,0,0,2.09,2.55A10.47,10.47,0,0,1,2.69,17.4Zm4.05,0h4v4.08c-1.36-.12-2.59-1.21-3.52-3A11.4,11.4,0,0,1,6.74,17.4Zm4.52,0h4a11.4,11.4,0,0,1-.49,1.08c-.93,1.78-2.16,2.88-3.52,3Zm4.56,0h3.5a10.47,10.47,0,0,1-6.17,3.87,7.13,7.13,0,0,0,2.09-2.55A12.1,12.1,0,0,0,15.81,17.4Z" fill="#00b087"/></svg>