<svg xmlns="http://www.w3.org/2000/svg" width="37.79" height="57.75" viewBox="0 0 37.79 57.75"><title>Asset 11</title><path d="M12.73,6.4,10.6,8.53l2.13,2.13-1.42,1.42L9.18,10,7,12.08,5.63,10.66,7.76,8.53,5.63,6.4,7,5,9.18,7.11,11.31,5Z" fill="#00b087"/><rect x="21.23" y="0.5" width="16.07" height="16.07" rx="8.03" ry="8.03" fill="none" stroke="#00b087" stroke-miterlimit="10"/><rect x="1.15" y="0.5" width="16.07" height="16.07" rx="8.03" ry="8.03" fill="none" stroke="#00b087" stroke-miterlimit="10"/><path d="M32.81,26.14l-2.13,2.13,2.13,2.13-1.42,1.42-2.13-2.13-2.13,2.13L25.71,30.4l2.13-2.13-2.13-2.13,1.42-1.42,2.13,2.13,2.13-2.13Z" fill="#00b087"/><rect x="21.23" y="20.23" width="16.07" height="16.07" rx="8.03" ry="8.03" fill="none" stroke="#00b087" stroke-miterlimit="10"/><rect x="1.15" y="20.23" width="16.07" height="16.07" rx="8.03" ry="8.03" fill="none" stroke="#00b087" stroke-miterlimit="10"/><path d="M32.17,47.08,30,49.21l2.13,2.13-1.42,1.42-2.13-2.13-2.13,2.13-1.42-1.42,2.13-2.13-2.13-2.13,1.42-1.42,2.13,2.13,2.13-2.13Z" fill="#00b087"/><rect x="20.58" y="41.18" width="16.07" height="16.07" rx="8.03" ry="8.03" fill="none" stroke="#00b087" stroke-miterlimit="10"/><rect x="0.5" y="41.18" width="16.07" height="16.07" rx="8.03" ry="8.03" fill="none" stroke="#00b087" stroke-miterlimit="10"/></svg>