<svg xmlns="http://www.w3.org/2000/svg" width="96.16" height="96.16" viewBox="0 0 96.16 96.16"><title>Asset 5</title><circle cx="48.08" cy="48.08" r="47.58" fill="none" stroke="#00b087" stroke-miterlimit="10"/><path d="M74.52,59.1A2.73,2.73,0,0,0,72,57.65h-.12a1.75,1.75,0,0,0,0-.44,2.22,2.22,0,0,0-1.35-1.84,4,4,0,0,0-4.72,1.08,40.72,40.72,0,0,1-5.8,3.8c-1.19-2.39-5-4-6.46-4.53a4.46,4.46,0,0,0,.11-1A2.84,2.84,0,0,0,52.14,52a3.84,3.84,0,0,0-.76-.28V48.91a5.82,5.82,0,0,0,1.65.24,5.43,5.43,0,0,0,3.85-1.63c1.43-1.4,2.47-3.68,3.1-6.77l.16-.8-.81.07c-3.82.33-6.49,1.4-7.94,3.17v-3a5.83,5.83,0,0,0,1.65.24,5.43,5.43,0,0,0,3.85-1.63c1.43-1.4,2.47-3.68,3.1-6.77l.16-.8-.81.07c-3.82.33-6.49,1.4-7.94,3.17v-.63a.6.6,0,0,0-.08-.29,4,4,0,0,0,1.64-2.7c.24-1.78-.72-3.76-2.83-5.88l-.58-.58-.39.71c-1.44,2.63-1.8,4.8-1.08,6.44a4,4,0,0,0,2.14,2.06.62.62,0,0,0,0,.24v3.5c-1.34-1.66-3.75-2.86-7.18-3.55l-.8-.16.07.81c.7,8,4.43,9.16,6.6,9.16a5.85,5.85,0,0,0,1.31-.15v3.13s0,.08,0,.13v4.82H37a18.09,18.09,0,0,0-8.37,3.64l-8.29.31a.61.61,0,0,0-.59.61V71.4a.61.61,0,0,0,.61.61H56.53a27.09,27.09,0,0,0,5.91-1.48,33.26,33.26,0,0,0,12-7.45l.06-.06A3.57,3.57,0,0,0,74.52,59.1ZM52,44.37c1-1.59,3.29-2.64,6.57-3-1,4.33-3,6.61-5.57,6.61a4.63,4.63,0,0,1-1.53-.27,4.49,4.49,0,0,1-.12-.88v-.32A4.1,4.1,0,0,1,52,44.37Zm0-8.74c1-1.59,3.29-2.64,6.57-3-1,4.33-3,6.61-5.57,6.61a4.61,4.61,0,0,1-1.53-.27,4.49,4.49,0,0,1-.12-.88v-.32A4.1,4.1,0,0,1,52,35.64ZM49.17,31c-.49-1.12-.27-2.7.65-4.61,1.41,1.57,2.06,3,1.91,4.23a2.8,2.8,0,0,1-1,1.82A2.83,2.83,0,0,1,49.17,31Zm.72,11.21a4.62,4.62,0,0,1-1,.12c-2.85,0-4.72-2.55-5.3-7.22,3.22.77,5.35,2.07,6.19,3.77a4.06,4.06,0,0,1,.42,1.69v.26A4.5,4.5,0,0,1,49.89,42.25Zm16.89,15a2.79,2.79,0,0,1,3.26-.8,1.08,1.08,0,0,1,.67.8c0,.28-.23.58-.68.86a6.14,6.14,0,0,0-1,.55c-1,.72-6,3.64-9.85,3.64h-.26C61.6,60.79,65.91,58.25,66.78,57.26ZM59,60.86l-2.55,1.44H43.08c-.33-.06-2.61-.52-2.61-1.85,0-1,.45-2.21,4-2.21h5.4a3.79,3.79,0,0,0,3.3-1.41C54.86,57.47,58.17,59,59,60.86ZM21,56.66l4.52-.17v14.3H21Zm52.57,5.58a31.73,31.73,0,0,1-17.08,8.55H26.69V56.45l2.16-.08a.61.61,0,0,0,.34-.12,17.47,17.47,0,0,1,7.88-3.51H49.86c2.37,0,2.64,1.13,2.64,2a2.77,2.77,0,0,1-.17,1.06.64.64,0,0,0-.07.14v0c-.3.57-1,1.1-2.43,1.1h-5.4c-3.44,0-5.18,1.15-5.18,3.42,0,2.49,3.54,3,3.69,3.07H59.21c4.18,0,9.39-3,10.55-3.86A4.34,4.34,0,0,1,72,58.87a1.53,1.53,0,0,1,1.44.83A2.41,2.41,0,0,1,73.52,62.25Z" fill="#00b087"/><circle cx="23.17" cy="58.93" r="1" fill="#00b087"/></svg>