<svg xmlns="http://www.w3.org/2000/svg" width="69.27" height="69.62" viewBox="0 0 69.27 69.62"><title>Asset 12</title><path d="M60.69,69.62a.67.67,0,0,1-.47-.19l-9.17-9.17-9.17,9.17a.66.66,0,1,1-.94-.94l9.17-9.17-9.17-9.17a.66.66,0,0,1,.94-.93l9.17,9.17,9.17-9.17a.66.66,0,0,1,.94.93L52,59.32l9.17,9.17a.66.66,0,0,1,0,.93A.66.66,0,0,1,60.69,69.62Zm-50.35-1.5A.66.66,0,0,1,10,66.9C18.93,61.13,25.59,54.09,29.78,46a48.83,48.83,0,0,0,5.31-21.42A61.12,61.12,0,0,0,31.32,2.36L26,12.58A.66.66,0,1,1,24.81,12L30.73.65A.66.66,0,0,1,31,.24.66.66,0,0,1,31.81.1l11,6.69a.66.66,0,0,1-.68,1.13L32.65,2.15a62.66,62.66,0,0,1,3.76,22.36,50.16,50.16,0,0,1-5.44,22C26.68,54.88,19.86,62.12,10.71,68A.74.74,0,0,1,10.34,68.12Zm9.59-24.91a.66.66,0,0,1-.47-.19L10.3,33.85,1.13,43a.66.66,0,0,1-.93-.93l9.17-9.17L.19,23.74a.66.66,0,1,1,.93-.93L10.3,32l9.17-9.17a.66.66,0,0,1,.93.93l-9.17,9.17,9.17,9.17a.66.66,0,0,1-.47,1.13Zm38.29-8.89a11,11,0,1,1,11-11A11.1,11.1,0,0,1,58.22,34.32Zm0-20.77a9.73,9.73,0,1,0,9.73,9.73A9.78,9.78,0,0,0,58.22,13.55Z" fill="#00b087"/></svg>