<svg xmlns="http://www.w3.org/2000/svg" xmlns:xlink="http://www.w3.org/1999/xlink" viewBox="0 0 664.19 178.6" aria-labelledby="title" aria-describedby="desc" role="img"><defs><radialGradient id="a" cx="581.21" cy="85.39" r="106.23" gradientUnits="userSpaceOnUse"><stop offset="0.31" stop-color="#458ecc"></stop><stop offset="0.39" stop-color="#4697ca"></stop><stop offset="0.81" stop-color="#4ec2be"></stop></radialGradient></defs><desc>Atura logo</desc><title>Atura</title><path d="M2.92,152.92q0-8.62,4.31-14.44a29.92,29.92,0,0,1,11.29-9.21,59.42,59.42,0,0,1,16-4.89A111.37,111.37,0,0,1,53,122.86q3.62,0,6.5.1t5.47.29c1.73.13,3.47.29,5.23.49s3.68.43,5.77.69v-6.54A19.19,19.19,0,0,0,73.08,107a22.06,22.06,0,0,0-7.1-6.78,30.13,30.13,0,0,0-8.81-3.51,37,37,0,0,0-7.84-1,61.67,61.67,0,0,0-18.79,2.74,71.71,71.71,0,0,0-16.06,7.34L8.41,95.65A82.77,82.77,0,0,1,26.86,87.4a74.81,74.81,0,0,1,22.47-3.21A56.85,56.85,0,0,1,64,86.1a41.24,41.24,0,0,1,13,5.87,29.11,29.11,0,0,1,9.2,10.43,32.46,32.46,0,0,1,3.45,15.47v59.72H76l.1-15.27a43.39,43.39,0,0,1-8,7.73,45.55,45.55,0,0,1-9.35,5.43,57.23,57.23,0,0,1-9.79,3.23,41.66,41.66,0,0,1-9.3,1.13q-18.12,0-27.42-7T2.92,152.92ZM39.6,168.39a42.94,42.94,0,0,0,15.1-2.5,41.38,41.38,0,0,0,11.39-6.22,30.93,30.93,0,0,0,7.28-7.93A14.85,14.85,0,0,0,76,144.11v-8.62a95.58,95.58,0,0,0-12.56-1.08q-6-.09-10.41-.1a96.13,96.13,0,0,0-13.93,1,45.12,45.12,0,0,0-11.68,3.18,22.11,22.11,0,0,0-8,5.73,12.91,12.91,0,0,0-3,8.71q0,5.77,5.62,10.62T39.6,168.39Z" transform="translate(-2.92 -1.24)" fill="#173c66"></path><path d="M200.8,148.52q-1.56,14.39-11.31,22.86t-24.33,8.47a39.43,39.43,0,0,1-14.69-2.65,33.06,33.06,0,0,1-11.35-7.34,32.55,32.55,0,0,1-7.29-11.31,39.13,39.13,0,0,1-2.6-14.44V97.8H108.57V86.34h20.66V49.82h13.41V86.34h38.87V97.8H142.65v46.31a27.06,27.06,0,0,0,1.61,9.4,24.58,24.58,0,0,0,4.51,7.73,20.61,20.61,0,0,0,7,5.24,22.05,22.05,0,0,0,9.4,1.91,23.6,23.6,0,0,0,16.69-6.22,24.39,24.39,0,0,0,7.69-16.1Z" transform="translate(-2.92 -1.24)" fill="#173c66"></path><path d="M226.85,86.34h13.41v56.39q0,12.23,5.32,18.94t17.16,6.71A26.35,26.35,0,0,0,276.12,165a32.8,32.8,0,0,0,10.16-9.15,42.4,42.4,0,0,0,6.41-13.12,54,54,0,0,0,2.19-15.42V86.34H308.5v91.25H294.89l.1-22.81q-9.6,25.06-34.47,25.06-33.68,0-33.68-37.11Z" transform="translate(-2.92 -1.24)" fill="#173c66"></path><path d="M425.78,99.27a38.14,38.14,0,0,0-17.23-3.62,30.17,30.17,0,0,0-14.68,3.52,35.42,35.42,0,0,0-11,9.24,41.93,41.93,0,0,0-6.9,13.1,48.86,48.86,0,0,0-2.4,15.2v29.43h20.66v11.46H339.53V166.14h20.66V97.8H339.53V86.34H373.6v22.91q9.2-25.06,35-25.06a71.68,71.68,0,0,1,12.09.89,33,33,0,0,1,9.55,3.16Z" transform="translate(-2.92 -1.24)" fill="#173c66"></path><path d="M444.78,152.92q0-8.62,4.31-14.44a29.92,29.92,0,0,1,11.29-9.21,59.42,59.42,0,0,1,16-4.89,111.37,111.37,0,0,1,18.43-1.52q3.62,0,6.5.1t5.47.29c1.73.13,3.47.29,5.23.49s3.68.43,5.77.69v-6.54A19.19,19.19,0,0,0,514.93,107a22.06,22.06,0,0,0-7.1-6.78A30.13,30.13,0,0,0,499,96.67a37,37,0,0,0-7.84-1,61.67,61.67,0,0,0-18.79,2.74,71.71,71.71,0,0,0-16.06,7.34l-6.08-10.08a82.77,82.77,0,0,1,18.46-8.25,74.81,74.81,0,0,1,22.47-3.21,56.85,56.85,0,0,1,14.64,1.91,41.24,41.24,0,0,1,13,5.87A29.11,29.11,0,0,1,528,102.4a32.46,32.46,0,0,1,3.45,15.47v59.72H517.82l.1-15.27a43.39,43.39,0,0,1-8,7.73,45.55,45.55,0,0,1-9.35,5.43,57.23,57.23,0,0,1-9.79,3.23,41.66,41.66,0,0,1-9.3,1.13q-18.12,0-27.42-7T444.78,152.92Zm36.68,15.47a42.94,42.94,0,0,0,15.1-2.5,41.38,41.38,0,0,0,11.39-6.22,30.93,30.93,0,0,0,7.28-7.93,14.85,14.85,0,0,0,2.59-7.64v-8.62a95.58,95.58,0,0,0-12.56-1.08q-6-.09-10.41-.1a96.13,96.13,0,0,0-13.93,1,45.12,45.12,0,0,0-11.68,3.18,22.11,22.11,0,0,0-8,5.73,12.91,12.91,0,0,0-3,8.71q0,5.77,5.62,10.62T481.46,168.39Z" transform="translate(-2.92 -1.24)" fill="#173c66"></path><path d="M656.15,66.86l11-18.93L640.06,1.24H586L558.92,47.93,586,94.61h54.09l12.65-21.83h0L656,67l.11-.18ZM636.63,7.19l23.61,40.74-7.53,13L629.1,20.17H618.89L601.12,50.81H589.4l-1.67-2.88L611.34,7.19ZM613,42.15l5,8.66H608Zm-47.22,5.78L589.4,7.19h15.06L580.86,47.93,586,56.76h35.52l5.85,10.09-1.67,2.89H578.43Zm70.84,40.74H589.4l-7.52-13H629.1l5.12-8.83L616.46,36.22l5.85-10.1h3.35l23.61,40.74Z" transform="translate(-2.92 -1.24)" fill="url(#a)"></path></svg>