<svg xmlns="http://www.w3.org/2000/svg" width="63.33" height="55.09" viewBox="0 0 63.33 55.09"><title>Asset 10</title><path d="M61.49,29.36h1.84L44.5,54.18H42.66ZM42.73,33.58a4.63,4.63,0,1,1,4.61,4.61A4.63,4.63,0,0,1,42.73,33.58Zm7.73,0a3.11,3.11,0,1,0-6.21,0,3.1,3.1,0,1,0,6.21,0Zm8.08,11.77a4.63,4.63,0,1,1,0,9.26,4.63,4.63,0,0,1,0-9.26Zm0,7.84A3.21,3.21,0,1,0,55.46,50,3.12,3.12,0,0,0,58.54,53.19Z" fill="#00b087"/><path d="M0,27.55C0,12.18,4.41,0,18,0s18,12.18,18,27.55S31.5,55.09,18,55.09,0,43,0,27.55Zm32.49,0C32.49,13.85,29.3,3.2,18,3.2S3.42,13.85,3.42,27.55,6.62,51.9,18,51.9,32.49,41.32,32.49,27.55Z" fill="#00b087"/></svg>