<?xml version="1.0" standalone="no"?>
<!DOCTYPE svg PUBLIC "-//W3C//DTD SVG 20010904//EN"
 "http://www.w3.org/TR/2001/REC-SVG-20010904/DTD/svg10.dtd">
<svg version="1.0" xmlns="http://www.w3.org/2000/svg"
 width="1001.000000pt" height="178.459874pt" viewBox="0 0 1001.000000 178.459874"
 preserveAspectRatio="xMidYMid meet">
<metadata>
Created by potrace 1.12, written by Peter Selinger 2001-2015
</metadata>
<g transform="translate(-1.000000,181.541141) scale(0.100000,-0.100000)"
fill="#000000" stroke="none">
<path d="M3864 1810 c-12 -5 -29 -19 -38 -32 -44 -63 20 -142 94 -117 35 13
50 35 50 78 0 29 -29 71 -49 71 -5 0 -15 2 -23 4 -7 3 -23 1 -34 -4z"/>
<path d="M6085 1810 c-271 -33 -435 -206 -435 -460 0 -171 103 -279 421 -440
229 -116 303 -172 351 -262 19 -36 22 -57 21 -133 -2 -207 -100 -354 -274
-414 -114 -39 -263 -51 -374 -30 -237 44 -397 250 -366 472 6 43 5 57 -5 57
-7 0 -15 -8 -18 -17 -10 -31 -106 -494 -106 -509 0 -17 19 -19 24 -2 28 96 62
148 96 148 11 0 55 -26 98 -58 137 -102 258 -138 423 -128 258 16 428 111 512
287 44 91 61 183 55 297 -9 179 -91 261 -435 437 -180 92 -276 161 -318 229
-28 47 -30 56 -30 150 0 91 3 106 27 151 35 63 52 84 107 123 116 85 360 105
505 42 65 -27 139 -101 167 -163 16 -36 24 -78 27 -139 3 -56 9 -88 16 -88 10
0 97 380 96 418 0 24 -23 7 -33 -24 -12 -35 -45 -74 -65 -74 -8 0 -51 22 -96
49 -44 28 -106 56 -136 65 -70 19 -179 26 -255 16z"/>
<path d="M440 1775 c0 -12 18 -15 106 -15 105 0 106 0 101 -22 -4 -13 -72
-330 -152 -705 -80 -375 -154 -711 -165 -746 -43 -139 -125 -210 -257 -224
-43 -4 -63 -10 -63 -19 0 -17 15 -17 100 -3 88 14 159 48 221 105 60 57 94
113 121 197 10 34 82 359 159 722 77 363 142 668 145 678 5 15 19 17 115 17
90 0 109 3 109 15 0 13 -37 15 -270 15 -233 0 -270 -2 -270 -15z"/>
<path d="M6796 1775 c-4 -13 8 -15 75 -15 l81 0 -7 -37 c-3 -21 -84 -402 -178
-848 l-173 -810 49 -3 c27 -2 52 -1 55 3 3 3 86 382 184 843 97 460 180 847
183 860 5 22 5 22 -129 22 -110 0 -135 -3 -140 -15z"/>
<path d="M9176 1775 c-4 -13 8 -15 75 -15 l81 0 -7 -37 c-3 -21 -84 -402 -178
-848 l-173 -810 50 -3 c28 -2 52 2 56 8 3 6 26 103 50 216 l43 205 99 90 c94
87 98 90 106 67 5 -12 51 -150 103 -306 l94 -282 137 0 c116 0 138 2 138 15 0
12 -15 15 -79 15 -76 0 -79 1 -90 28 -6 15 -58 166 -116 337 l-106 310 163
157 c204 197 243 225 331 240 37 6 67 15 67 19 0 5 -88 9 -195 9 -107 0 -195
-4 -195 -9 0 -4 18 -11 40 -14 52 -7 70 -22 70 -61 1 -28 -29 -60 -272 -298
-150 -147 -276 -268 -280 -268 -4 0 -5 6 -3 13 2 6 61 280 130 607 69 327 128
603 131 613 5 16 -6 17 -129 17 -111 0 -136 -3 -141 -15z"/>
<path d="M3086 1658 c-95 -150 -109 -183 -140 -323 l-32 -140 -82 -3 c-102 -4
-109 -22 -8 -22 41 0 77 -3 79 -7 2 -5 -34 -183 -81 -398 -70 -324 -85 -406
-86 -485 -1 -87 1 -99 26 -142 41 -69 115 -103 223 -103 176 0 281 102 344
333 l20 72 -24 0 c-20 0 -24 -7 -30 -43 -4 -23 -21 -80 -38 -127 -55 -151
-154 -223 -289 -207 -28 4 -61 13 -74 22 -85 56 -82 129 33 665 l89 415 247 3
c153 1 247 6 247 12 0 6 -90 10 -240 10 -226 0 -240 1 -240 18 0 10 20 115 45
232 25 117 45 219 45 227 0 20 -18 15 -34 -9z"/>
<path d="M2210 1198 c-122 -47 -200 -169 -200 -311 1 -144 46 -195 277 -309
174 -86 214 -118 232 -186 12 -44 1 -135 -23 -180 -24 -46 -102 -109 -159
-129 -79 -27 -216 -25 -290 6 -108 44 -181 159 -163 256 6 28 4 35 -9 35 -8 0
-15 -2 -15 -5 0 -2 -13 -68 -30 -145 -16 -77 -30 -147 -30 -155 0 -23 20 -18
29 8 20 52 35 53 129 9 48 -23 116 -46 152 -52 159 -28 333 33 410 145 62 91
84 211 56 309 -26 90 -77 133 -260 221 -166 81 -218 122 -237 184 -24 81 13
180 89 238 52 40 98 53 183 53 132 0 219 -73 242 -203 6 -38 16 -66 22 -64 8
3 63 218 65 255 0 21 -20 13 -29 -11 -19 -49 -36 -52 -90 -18 -112 72 -243 90
-351 49z"/>
<path d="M4496 1200 c-104 -37 -177 -99 -240 -204 -20 -33 -36 -57 -36 -54 0
3 11 56 25 118 14 62 25 117 25 122 0 4 -61 8 -135 8 -83 0 -135 -4 -135 -10
0 -6 31 -10 74 -10 41 0 77 -3 79 -7 2 -5 -48 -254 -113 -555 l-116 -548 52 0
c41 0 54 4 58 18 3 9 35 156 71 327 93 437 134 549 243 667 76 82 141 111 256
116 112 4 149 -12 184 -78 40 -80 36 -116 -82 -672 -42 -197 -76 -362 -76
-368 0 -6 49 -10 135 -10 113 0 135 2 135 15 0 12 -16 15 -80 15 -78 0 -80 1
-75 23 3 12 37 171 76 352 113 525 107 651 -35 724 -69 36 -205 41 -290 11z"/>
<path d="M7430 1201 c-138 -44 -258 -158 -339 -323 -75 -151 -103 -270 -105
-438 -1 -150 11 -201 65 -283 111 -168 401 -165 570 7 29 30 70 83 91 117 21
34 38 60 38 57 0 -9 -50 -240 -56 -261 -5 -16 4 -17 132 -15 99 2 139 6 142
16 3 9 -17 12 -77 12 -45 0 -81 3 -81 8 0 4 52 256 117 560 64 303 113 555
109 559 -11 12 -23 -8 -92 -160 -37 -81 -68 -146 -70 -144 -2 2 -9 30 -15 62
-30 165 -131 246 -303 244 -39 0 -96 -8 -126 -18z m231 -23 c49 -14 114 -69
138 -117 57 -112 52 -307 -14 -534 -66 -230 -169 -370 -322 -439 -38 -18 -67
-22 -143 -23 -122 0 -172 23 -210 100 -23 46 -25 61 -24 180 1 363 157 732
346 820 60 28 161 34 229 13z"/>
<path d="M8530 1201 c-87 -28 -134 -56 -206 -123 -111 -104 -187 -235 -240
-413 -23 -77 -27 -109 -28 -220 -1 -155 17 -213 91 -295 57 -64 122 -97 218
-112 148 -23 290 27 395 138 60 65 117 167 127 229 5 30 3 35 -14 35 -16 0
-23 -13 -37 -63 -50 -184 -187 -302 -364 -314 -141 -10 -235 35 -282 135 -29
59 -38 204 -21 324 45 314 168 548 332 635 49 26 63 28 159 28 99 0 108 -2
160 -31 67 -38 106 -96 122 -182 6 -34 17 -62 23 -62 10 0 65 228 65 268 0 25
-20 11 -35 -25 -9 -21 -21 -40 -27 -44 -6 -4 -39 13 -75 37 -35 24 -86 50
-115 59 -68 20 -179 18 -248 -4z"/>
<path d="M850 1180 c0 -6 31 -10 74 -10 41 0 77 -3 79 -7 2 -5 -32 -174 -75
-378 -65 -305 -80 -388 -81 -470 -2 -92 0 -105 26 -158 34 -68 84 -102 176
-119 171 -32 362 65 447 226 16 30 30 54 31 52 1 -1 -9 -55 -22 -119 -14 -64
-25 -122 -25 -127 0 -6 52 -10 135 -10 113 0 135 2 135 15 0 12 -16 15 -81 15
-72 0 -80 2 -75 18 9 31 226 1059 226 1071 0 8 -41 11 -135 11 -83 0 -135 -4
-135 -10 0 -6 33 -10 80 -10 44 0 80 -2 80 -5 0 -26 -136 -634 -156 -697 -73
-231 -189 -365 -343 -398 -129 -27 -226 5 -257 85 -28 74 -14 179 80 620 47
220 86 403 86 408 0 4 -61 7 -135 7 -83 0 -135 -4 -135 -10z"/>
<path d="M3560 1180 c0 -6 31 -10 74 -10 41 0 77 -3 79 -7 2 -5 -48 -254 -113
-555 l-116 -548 52 0 c41 0 54 4 58 18 6 20 236 1096 236 1106 0 3 -61 6 -135
6 -83 0 -135 -4 -135 -10z"/>
</g>
</svg>
