<?xml version="1.0" standalone="no"?>
<!DOCTYPE svg PUBLIC "-//W3C//DTD SVG 20010904//EN"
 "http://www.w3.org/TR/2001/REC-SVG-20010904/DTD/svg10.dtd">
<svg version="1.0" xmlns="http://www.w3.org/2000/svg"
 width="700.000000pt" height="700.000000pt" viewBox="0 0 700.000000 700.000000"
 preserveAspectRatio="xMidYMid meet">
<metadata>
Created by potrace 1.11, written by Peter Selinger 2001-2013
</metadata>
<g transform="translate(0.000000,700.000000) scale(0.100000,-0.100000)"
fill="#000000" stroke="none">
<path d="M0 3500 l0 -3500 3500 0 3500 0 0 3500 0 3500 -3500 0 -3500 0 0
-3500z m6887 3386 c5 -5 5 -6767 0 -6773 -6 -5 -6768 -5 -6774 0 -3 3 -6 5845
-3 6704 l0 72 33 3 c49 5 6739 -1 6744 -6z"/>
<path d="M4462 5064 c-308 -55 -537 -207 -670 -445 -11 -19 -32 -71 -47 -115
-39 -111 -45 -303 -14 -414 56 -204 202 -364 431 -475 40 -20 81 -40 90 -45
30 -16 180 -67 345 -115 533 -157 727 -264 823 -455 24 -48 33 -74 47 -140 2
-8 3 -53 3 -100 1 -288 -183 -516 -495 -615 -110 -35 -249 -53 -374 -49 -128
5 -203 18 -313 55 -195 64 -346 196 -418 364 -14 34 -50 174 -50 197 0 2 -21
2 -47 1 -27 -1 -70 -2 -96 -2 l-49 -1 7 -47 c22 -167 96 -329 203 -445 121
-131 329 -237 547 -279 77 -14 355 -18 448 -7 119 16 263 60 372 114 276 139
445 404 448 702 1 109 -6 161 -33 243 -26 78 -60 138 -114 204 -142 172 -350
282 -766 405 -423 125 -534 175 -689 305 -32 27 -104 131 -124 180 -56 138
-48 293 23 441 111 230 359 369 676 378 429 13 742 -218 799 -591 4 -27 12
-43 21 -44 8 0 43 0 79 0 36 0 70 0 75 0 26 2 -6 178 -50 283 -115 271 -339
439 -685 513 -59 13 -329 12 -403 -1z"/>
<path d="M2729 5031 c-1 -4 -2 -535 -3 -1181 -3 -1245 -2 -1227 -51 -1372 -55
-163 -165 -282 -311 -337 -110 -42 -293 -51 -419 -21 -75 18 -204 83 -257 129
-86 76 -158 216 -158 307 l0 34 -94 0 -94 0 5 -61 c11 -143 90 -299 202 -401
108 -97 291 -175 451 -193 74 -7 220 -7 265 1 246 43 420 157 529 345 41 73
82 194 101 304 16 91 18 206 19 1273 0 644 -1 1172 -4 1173 -20 4 -180 4 -181
0z"/>
</g>
</svg>
